# xmcd
#
# Track frame offsets:
#	150
#	16887
#	25998
#	41666
#	53466
#	67862
#	81730
#	105414
#
# Disc length: 1601 seconds
# Revision: 0
# Processed by: cddbd v1.5.2PL0 Copyright (c) Steve Scherf et al.
# Submitted via: dBpowerAMP V12.0
#
DISCID=5a063f08
DTITLE=Mollie O'brien and Rich Moore - Daughters
DYEAR=2016
DGENRE=Country
TTITLE0=Trouble
TTITLE1=The Beehive State
TTITLE2=Sister (Take Me To The Shore)
TTITLE3=Restless
TTITLE4=The Day I Die
TTITLE5=I Don't Wanna Grow Up
TTITLE6=Floods Of South Dakota
TTITLE7=Murphys Waltz
EXTD=
EXTT0=
EXTT1=
EXTT2=
EXTT3=
EXTT4=
EXTT5=
EXTT6=
EXTT7=
PLAYORDER=
